<svg width="85" height="37" viewBox="0 0 85 37" fill="none" xmlns="http://www.w3.org/2000/svg">
<path d="M22.7109 19.2656L34.9453 0.515625C36.2734 0.59375 37.5312 0.695313 38.7188 0.820312C39.9062 0.929688 40.9453 1.04688 41.8359 1.17188C42.8828 1.3125 43.8516 1.45312 44.7422 1.59375V6.98438L40.3828 6V30.1875L44.7422 29.2031V35.0156C43.0859 35.3438 41.4531 35.5859 39.8438 35.7422C38.2344 35.8984 36.6016 36.0156 34.9453 36.0938V10.3594L22.7109 29.3438L10.2891 10.3125V36.0938C8.96094 36.0156 7.70312 35.9219 6.51562 35.8125C5.32812 35.7031 4.28906 35.5859 3.39844 35.4609C2.35156 35.3203 1.38281 35.1719 0.492188 35.0156V29.2031L4.85156 30.1875V5.95312L0.492188 6.9375V1.54688C1.38281 1.40625 2.35156 1.26562 3.39844 1.125C4.28906 1 5.32812 0.882813 6.51562 0.773438C7.70312 0.648438 8.96094 0.546875 10.2891 0.46875L22.7109 19.2656ZM67.1953 0.328125C69.7422 0.328125 72.4609 0.421875 75.3516 0.609375C78.2578 0.78125 81.3047 1.125 84.4922 1.64062V27.7969C84.4922 28.8438 84.2578 29.7812 83.7891 30.6094C83.3359 31.4219 82.7031 32.1328 81.8906 32.7422C81.0938 33.3359 80.1406 33.8438 79.0312 34.2656C77.9375 34.6719 76.75 35 75.4688 35.25C74.2031 35.5 72.8672 35.6797 71.4609 35.7891C70.0547 35.8984 68.6484 35.9531 67.2422 35.9531C65.8047 35.9531 64.3906 35.8984 63 35.7891C61.6094 35.6797 60.2891 35.5 59.0391 35.25C57.7891 35 56.625 34.6719 55.5469 34.2656C54.4844 33.8438 53.5469 33.3359 52.7344 32.7422C51.9219 32.1328 51.2656 31.4219 50.7656 30.6094C50.2656 29.7969 49.9609 28.8594 49.8516 27.7969L55.9453 26.1094C55.9453 27.0781 56.2734 27.8672 56.9297 28.4766C57.5859 29.0859 58.4453 29.5625 59.5078 29.9062C60.5859 30.25 61.7969 30.4844 63.1406 30.6094C64.4844 30.7344 65.8516 30.7969 67.2422 30.7969C68.6641 30.7969 70.0391 30.7344 71.3672 30.6094C72.7109 30.4688 73.8984 30.2266 74.9297 29.8828C75.9766 29.5234 76.8125 29.0391 77.4375 28.4297C78.0781 27.8203 78.3984 27.0469 78.3984 26.1094V6.46875C76.8359 6.25 75.1562 6.07031 73.3594 5.92969C71.5781 5.78906 69.7578 5.71875 67.8984 5.71875H67.1016C64.4609 5.75 61.8047 5.88281 59.1328 6.11719C56.4766 6.33594 53.7578 6.75 50.9766 7.35938V1.45312C53.9453 1 56.7812 0.703125 59.4844 0.5625C62.2031 0.40625 64.7734 0.328125 67.1953 0.328125Z" fill="#34547A"/>
</svg>
